# xmcd
#
# Track frame offsets:
#	150
#	13687
#	28665
#	43887
#	56697
#	70257
#	87942
#	109385
#	129727
#	147515
#	162092
#	179115
#
# Disc length: 2588 seconds
#
# Revision: 1
# Processed by: cddbd v1.5.1PL0 Copyright (c) Steve Scherf et al.
# Submitted via: audiograbber 1.82.02
#
DISCID=b40a1a0c
DTITLE=Vol 1 - NuTech Karaoke
DYEAR=1900
DGENRE=
TTITLE0=Alan Jackson - Don't Rock The Jukebox
TTITLE1=Anne Murray - Could I Have This Dance
TTITLE2=Patty Loveless - Hurt Me Bad In A Real Good Way
TTITLE3=Hank Williams - Cold Cold Heart
TTITLE4=Dwight Yoakam - If There Was A Way
TTITLE5=Keith Whitley - Don't Close Your Eyes
TTITLE6=Rebe Mc Entire - Fancy
TTITLE7=The Judds - Grandpa
TTITLE8=Joe Diffie - Is It Cold In Here Or Is It You
TTITLE9=Emmylou Harris - Blue Kentucky Girl
TTITLE10=Clint Black - We Tell Ourselves
TTITLE11=Alabama - Fells So Right
EXTD=
EXTT0=
EXTT1=
EXTT2=
EXTT3=
EXTT4=
EXTT5=
EXTT6=
EXTT7=
EXTT8=
EXTT9=
EXTT10=
EXTT11=
PLAYORDER=
